<mxfile host="app.diagrams.net" modified="2021-08-15T14:36:12.352Z" agent="5.0 (Windows NT 10.0; Win64; x64) AppleWebKit/537.36 (KHTML, like Gecko) Chrome/92.0.4515.131 Safari/537.36" etag="qRyBOaw1FjwPKkSpzgjx" version="14.9.6" type="github">
  <diagram id="ejN9pkBIwQDCIyMe19XY" name="Page-1">
    <mxGraphModel dx="1550" dy="835" grid="1" gridSize="10" guides="1" tooltips="1" connect="1" arrows="1" fold="1" page="1" pageScale="1" pageWidth="827" pageHeight="1169" math="0" shadow="0">
      <root>
        <mxCell id="0" />
        <mxCell id="1" parent="0" />
        <mxCell id="hFdDT_14DQBR93CSSTal-22" style="edgeStyle=none;rounded=0;orthogonalLoop=1;jettySize=auto;html=1;exitX=0.5;exitY=1;exitDx=0;exitDy=0;entryX=1;entryY=0;entryDx=0;entryDy=0;" edge="1" parent="1" source="hFdDT_14DQBR93CSSTal-1" target="hFdDT_14DQBR93CSSTal-2">
          <mxGeometry relative="1" as="geometry" />
        </mxCell>
        <mxCell id="hFdDT_14DQBR93CSSTal-23" style="edgeStyle=none;rounded=0;orthogonalLoop=1;jettySize=auto;html=1;exitX=0.5;exitY=1;exitDx=0;exitDy=0;entryX=0.5;entryY=0;entryDx=0;entryDy=0;" edge="1" parent="1" source="hFdDT_14DQBR93CSSTal-1" target="hFdDT_14DQBR93CSSTal-3">
          <mxGeometry relative="1" as="geometry" />
        </mxCell>
        <mxCell id="hFdDT_14DQBR93CSSTal-1" value="4" style="ellipse;whiteSpace=wrap;html=1;aspect=fixed;" vertex="1" parent="1">
          <mxGeometry x="340" y="140" width="40" height="40" as="geometry" />
        </mxCell>
        <mxCell id="hFdDT_14DQBR93CSSTal-2" value="-7" style="ellipse;whiteSpace=wrap;html=1;aspect=fixed;" vertex="1" parent="1">
          <mxGeometry x="230" y="230" width="40" height="40" as="geometry" />
        </mxCell>
        <mxCell id="hFdDT_14DQBR93CSSTal-24" style="edgeStyle=none;rounded=0;orthogonalLoop=1;jettySize=auto;html=1;exitX=0.5;exitY=1;exitDx=0;exitDy=0;entryX=1;entryY=0;entryDx=0;entryDy=0;" edge="1" parent="1" source="hFdDT_14DQBR93CSSTal-3" target="hFdDT_14DQBR93CSSTal-4">
          <mxGeometry relative="1" as="geometry" />
        </mxCell>
        <mxCell id="hFdDT_14DQBR93CSSTal-25" style="edgeStyle=none;rounded=0;orthogonalLoop=1;jettySize=auto;html=1;exitX=0.5;exitY=1;exitDx=0;exitDy=0;entryX=0.5;entryY=0;entryDx=0;entryDy=0;" edge="1" parent="1" source="hFdDT_14DQBR93CSSTal-3" target="hFdDT_14DQBR93CSSTal-5">
          <mxGeometry relative="1" as="geometry" />
        </mxCell>
        <mxCell id="hFdDT_14DQBR93CSSTal-3" value="-3" style="ellipse;whiteSpace=wrap;html=1;aspect=fixed;" vertex="1" parent="1">
          <mxGeometry x="440" y="230" width="40" height="40" as="geometry" />
        </mxCell>
        <mxCell id="hFdDT_14DQBR93CSSTal-26" style="edgeStyle=none;rounded=0;orthogonalLoop=1;jettySize=auto;html=1;exitX=0.5;exitY=1;exitDx=0;exitDy=0;entryX=1;entryY=0;entryDx=0;entryDy=0;" edge="1" parent="1" source="hFdDT_14DQBR93CSSTal-4" target="hFdDT_14DQBR93CSSTal-6">
          <mxGeometry relative="1" as="geometry" />
        </mxCell>
        <mxCell id="hFdDT_14DQBR93CSSTal-27" style="edgeStyle=none;rounded=0;orthogonalLoop=1;jettySize=auto;html=1;exitX=0.5;exitY=1;exitDx=0;exitDy=0;entryX=0.19;entryY=-0.005;entryDx=0;entryDy=0;entryPerimeter=0;" edge="1" parent="1" source="hFdDT_14DQBR93CSSTal-4" target="hFdDT_14DQBR93CSSTal-7">
          <mxGeometry relative="1" as="geometry" />
        </mxCell>
        <mxCell id="hFdDT_14DQBR93CSSTal-4" value="-9" style="ellipse;whiteSpace=wrap;html=1;aspect=fixed;" vertex="1" parent="1">
          <mxGeometry x="300" y="300" width="40" height="40" as="geometry" />
        </mxCell>
        <mxCell id="hFdDT_14DQBR93CSSTal-28" style="edgeStyle=none;rounded=0;orthogonalLoop=1;jettySize=auto;html=1;exitX=0.5;exitY=1;exitDx=0;exitDy=0;entryX=1;entryY=0;entryDx=0;entryDy=0;" edge="1" parent="1" source="hFdDT_14DQBR93CSSTal-5" target="hFdDT_14DQBR93CSSTal-8">
          <mxGeometry relative="1" as="geometry" />
        </mxCell>
        <mxCell id="hFdDT_14DQBR93CSSTal-5" value="-3" style="ellipse;whiteSpace=wrap;html=1;aspect=fixed;" vertex="1" parent="1">
          <mxGeometry x="550" y="300" width="40" height="40" as="geometry" />
        </mxCell>
        <mxCell id="hFdDT_14DQBR93CSSTal-29" style="edgeStyle=none;rounded=0;orthogonalLoop=1;jettySize=auto;html=1;exitX=0.5;exitY=1;exitDx=0;exitDy=0;entryX=1;entryY=0;entryDx=0;entryDy=0;" edge="1" parent="1" source="hFdDT_14DQBR93CSSTal-6" target="hFdDT_14DQBR93CSSTal-9">
          <mxGeometry relative="1" as="geometry" />
        </mxCell>
        <mxCell id="hFdDT_14DQBR93CSSTal-6" value="9" style="ellipse;whiteSpace=wrap;html=1;aspect=fixed;" vertex="1" parent="1">
          <mxGeometry x="240" y="360" width="40" height="40" as="geometry" />
        </mxCell>
        <mxCell id="hFdDT_14DQBR93CSSTal-30" style="edgeStyle=none;rounded=0;orthogonalLoop=1;jettySize=auto;html=1;exitX=0.5;exitY=1;exitDx=0;exitDy=0;entryX=0.82;entryY=-0.005;entryDx=0;entryDy=0;entryPerimeter=0;" edge="1" parent="1" source="hFdDT_14DQBR93CSSTal-7" target="hFdDT_14DQBR93CSSTal-10">
          <mxGeometry relative="1" as="geometry" />
        </mxCell>
        <mxCell id="hFdDT_14DQBR93CSSTal-31" style="edgeStyle=none;rounded=0;orthogonalLoop=1;jettySize=auto;html=1;exitX=0.5;exitY=1;exitDx=0;exitDy=0;" edge="1" parent="1" source="hFdDT_14DQBR93CSSTal-7" target="hFdDT_14DQBR93CSSTal-11">
          <mxGeometry relative="1" as="geometry" />
        </mxCell>
        <mxCell id="hFdDT_14DQBR93CSSTal-7" value="-7" style="ellipse;whiteSpace=wrap;html=1;aspect=fixed;" vertex="1" parent="1">
          <mxGeometry x="360" y="360" width="40" height="40" as="geometry" />
        </mxCell>
        <mxCell id="hFdDT_14DQBR93CSSTal-8" value="-4" style="ellipse;whiteSpace=wrap;html=1;aspect=fixed;" vertex="1" parent="1">
          <mxGeometry x="490" y="360" width="40" height="40" as="geometry" />
        </mxCell>
        <mxCell id="hFdDT_14DQBR93CSSTal-32" style="edgeStyle=none;rounded=0;orthogonalLoop=1;jettySize=auto;html=1;exitX=0.5;exitY=1;exitDx=0;exitDy=0;entryX=1;entryY=0;entryDx=0;entryDy=0;" edge="1" parent="1" source="hFdDT_14DQBR93CSSTal-9" target="hFdDT_14DQBR93CSSTal-12">
          <mxGeometry relative="1" as="geometry" />
        </mxCell>
        <mxCell id="hFdDT_14DQBR93CSSTal-33" style="edgeStyle=none;rounded=0;orthogonalLoop=1;jettySize=auto;html=1;exitX=0.5;exitY=1;exitDx=0;exitDy=0;entryX=0.5;entryY=0;entryDx=0;entryDy=0;" edge="1" parent="1" source="hFdDT_14DQBR93CSSTal-9" target="hFdDT_14DQBR93CSSTal-13">
          <mxGeometry relative="1" as="geometry" />
        </mxCell>
        <mxCell id="hFdDT_14DQBR93CSSTal-9" value="6" style="ellipse;whiteSpace=wrap;html=1;aspect=fixed;" vertex="1" parent="1">
          <mxGeometry x="160" y="440" width="40" height="40" as="geometry" />
        </mxCell>
        <mxCell id="hFdDT_14DQBR93CSSTal-16" style="rounded=0;orthogonalLoop=1;jettySize=auto;html=1;exitX=0.5;exitY=1;exitDx=0;exitDy=0;entryX=1;entryY=0;entryDx=0;entryDy=0;" edge="1" parent="1" source="hFdDT_14DQBR93CSSTal-10" target="hFdDT_14DQBR93CSSTal-14">
          <mxGeometry relative="1" as="geometry" />
        </mxCell>
        <mxCell id="hFdDT_14DQBR93CSSTal-10" value="-6" style="ellipse;whiteSpace=wrap;html=1;aspect=fixed;" vertex="1" parent="1">
          <mxGeometry x="310" y="440" width="40" height="40" as="geometry" />
        </mxCell>
        <mxCell id="hFdDT_14DQBR93CSSTal-17" style="edgeStyle=none;rounded=0;orthogonalLoop=1;jettySize=auto;html=1;exitX=0.5;exitY=1;exitDx=0;exitDy=0;entryX=0.5;entryY=0;entryDx=0;entryDy=0;" edge="1" parent="1" source="hFdDT_14DQBR93CSSTal-11" target="hFdDT_14DQBR93CSSTal-15">
          <mxGeometry relative="1" as="geometry" />
        </mxCell>
        <mxCell id="hFdDT_14DQBR93CSSTal-11" value="-6" style="ellipse;whiteSpace=wrap;html=1;aspect=fixed;" vertex="1" parent="1">
          <mxGeometry x="390" y="440" width="40" height="40" as="geometry" />
        </mxCell>
        <mxCell id="hFdDT_14DQBR93CSSTal-19" style="edgeStyle=none;rounded=0;orthogonalLoop=1;jettySize=auto;html=1;exitX=0.5;exitY=1;exitDx=0;exitDy=0;entryX=0.5;entryY=0;entryDx=0;entryDy=0;" edge="1" parent="1" source="hFdDT_14DQBR93CSSTal-12" target="hFdDT_14DQBR93CSSTal-18">
          <mxGeometry relative="1" as="geometry" />
        </mxCell>
        <mxCell id="hFdDT_14DQBR93CSSTal-12" value="0" style="ellipse;whiteSpace=wrap;html=1;aspect=fixed;" vertex="1" parent="1">
          <mxGeometry x="90" y="520" width="40" height="40" as="geometry" />
        </mxCell>
        <mxCell id="hFdDT_14DQBR93CSSTal-21" style="edgeStyle=none;rounded=0;orthogonalLoop=1;jettySize=auto;html=1;exitX=0.5;exitY=1;exitDx=0;exitDy=0;entryX=1;entryY=0;entryDx=0;entryDy=0;" edge="1" parent="1" source="hFdDT_14DQBR93CSSTal-13" target="hFdDT_14DQBR93CSSTal-20">
          <mxGeometry relative="1" as="geometry" />
        </mxCell>
        <mxCell id="hFdDT_14DQBR93CSSTal-13" value="6" style="ellipse;whiteSpace=wrap;html=1;aspect=fixed;" vertex="1" parent="1">
          <mxGeometry x="210" y="520" width="40" height="40" as="geometry" />
        </mxCell>
        <mxCell id="hFdDT_14DQBR93CSSTal-14" value="5" style="ellipse;whiteSpace=wrap;html=1;aspect=fixed;" vertex="1" parent="1">
          <mxGeometry x="280" y="520" width="40" height="40" as="geometry" />
        </mxCell>
        <mxCell id="hFdDT_14DQBR93CSSTal-35" style="edgeStyle=none;rounded=0;orthogonalLoop=1;jettySize=auto;html=1;exitX=0.5;exitY=1;exitDx=0;exitDy=0;entryX=0.68;entryY=0.045;entryDx=0;entryDy=0;entryPerimeter=0;" edge="1" parent="1" source="hFdDT_14DQBR93CSSTal-15" target="hFdDT_14DQBR93CSSTal-34">
          <mxGeometry relative="1" as="geometry" />
        </mxCell>
        <mxCell id="hFdDT_14DQBR93CSSTal-15" value="9" style="ellipse;whiteSpace=wrap;html=1;aspect=fixed;" vertex="1" parent="1">
          <mxGeometry x="370" y="520" width="40" height="40" as="geometry" />
        </mxCell>
        <mxCell id="hFdDT_14DQBR93CSSTal-18" value="-1" style="ellipse;whiteSpace=wrap;html=1;aspect=fixed;" vertex="1" parent="1">
          <mxGeometry x="110" y="610" width="40" height="40" as="geometry" />
        </mxCell>
        <mxCell id="hFdDT_14DQBR93CSSTal-20" value="-4" style="ellipse;whiteSpace=wrap;html=1;aspect=fixed;" vertex="1" parent="1">
          <mxGeometry x="180" y="610" width="40" height="40" as="geometry" />
        </mxCell>
        <mxCell id="hFdDT_14DQBR93CSSTal-34" value="-2" style="ellipse;whiteSpace=wrap;html=1;aspect=fixed;" vertex="1" parent="1">
          <mxGeometry x="350" y="610" width="40" height="40" as="geometry" />
        </mxCell>
      </root>
    </mxGraphModel>
  </diagram>
</mxfile>
